<mxfile host="app.diagrams.net" agent="Mozilla/5.0 (Macintosh; Intel Mac OS X 10_15_7) AppleWebKit/605.1.15 (KHTML, like Gecko) Version/18.5 Safari/605.1.15" version="28.0.3">
  <diagram name="Seite-1" id="ywIODS4xg6C1yedOmWix">
    <mxGraphModel dx="2046" dy="1152" grid="1" gridSize="10" guides="1" tooltips="1" connect="1" arrows="1" fold="1" page="1" pageScale="1" pageWidth="827" pageHeight="1169" math="0" shadow="0">
      <root>
        <mxCell id="0" />
        <mxCell id="1" parent="0" />
        <mxCell id="FX36uq53OrztX1MvJwH2-2" value="" style="edgeStyle=orthogonalEdgeStyle;rounded=0;orthogonalLoop=1;jettySize=auto;html=1;" parent="1" source="FX36uq53OrztX1MvJwH2-3" target="FX36uq53OrztX1MvJwH2-6" edge="1">
          <mxGeometry relative="1" as="geometry" />
        </mxCell>
        <mxCell id="FX36uq53OrztX1MvJwH2-3" value="&lt;font style=&quot;font-size: 14px;&quot;&gt;Input von LLM&lt;/font&gt;" style="ellipse;whiteSpace=wrap;html=1;fontStyle=1" parent="1" vertex="1">
          <mxGeometry x="970" y="170" width="120" height="80" as="geometry" />
        </mxCell>
        <object label="&lt;font style=&quot;font-size: 18px;&quot;&gt;NO&lt;/font&gt;" nein="" id="FX36uq53OrztX1MvJwH2-4">
          <mxCell style="edgeStyle=orthogonalEdgeStyle;rounded=0;orthogonalLoop=1;jettySize=auto;html=1;entryX=0;entryY=0.5;entryDx=0;entryDy=0;" parent="1" source="FX36uq53OrztX1MvJwH2-6" target="FX36uq53OrztX1MvJwH2-7" edge="1">
            <mxGeometry x="0.0046" relative="1" as="geometry">
              <mxPoint as="offset" />
            </mxGeometry>
          </mxCell>
        </object>
        <mxCell id="FX36uq53OrztX1MvJwH2-29" style="edgeStyle=orthogonalEdgeStyle;rounded=0;orthogonalLoop=1;jettySize=auto;html=1;exitX=0.5;exitY=1;exitDx=0;exitDy=0;entryX=0.5;entryY=0;entryDx=0;entryDy=0;" parent="1" source="FX36uq53OrztX1MvJwH2-6" target="FX36uq53OrztX1MvJwH2-19" edge="1">
          <mxGeometry relative="1" as="geometry">
            <Array as="points">
              <mxPoint x="1030" y="420" />
              <mxPoint x="1030" y="420" />
            </Array>
          </mxGeometry>
        </mxCell>
        <mxCell id="FX36uq53OrztX1MvJwH2-30" value="&lt;font style=&quot;font-size: 18px;&quot;&gt;YES&lt;/font&gt;" style="edgeLabel;html=1;align=center;verticalAlign=middle;resizable=0;points=[];" parent="FX36uq53OrztX1MvJwH2-29" vertex="1" connectable="0">
          <mxGeometry x="-0.2357" y="-1" relative="1" as="geometry">
            <mxPoint as="offset" />
          </mxGeometry>
        </mxCell>
        <mxCell id="FX36uq53OrztX1MvJwH2-6" value="Ist&lt;div&gt;&amp;nbsp;Risikokommunikation&amp;nbsp;&lt;/div&gt;&lt;div&gt;gegeben?&lt;/div&gt;" style="rhombus;whiteSpace=wrap;html=1;" parent="1" vertex="1">
          <mxGeometry x="930" y="270" width="200" height="80" as="geometry" />
        </mxCell>
        <mxCell id="FX36uq53OrztX1MvJwH2-7" value="STOPP: Keine Risikokommunikation" style="rounded=1;whiteSpace=wrap;html=1;fillColor=#dae8fc;strokeColor=#6c8ebf;" parent="1" vertex="1">
          <mxGeometry x="1250" y="270" width="120" height="75" as="geometry" />
        </mxCell>
        <mxCell id="FX36uq53OrztX1MvJwH2-9" value="&lt;font style=&quot;font-size: 18px;&quot;&gt;YES&lt;/font&gt;" style="edgeStyle=orthogonalEdgeStyle;rounded=0;orthogonalLoop=1;jettySize=auto;html=1;exitX=0;exitY=0.5;exitDx=0;exitDy=0;" parent="1" source="FX36uq53OrztX1MvJwH2-10" edge="1">
          <mxGeometry relative="1" as="geometry">
            <mxPoint x="910" y="920" as="targetPoint" />
            <Array as="points">
              <mxPoint x="910" y="750" />
            </Array>
          </mxGeometry>
        </mxCell>
        <mxCell id="FX36uq53OrztX1MvJwH2-10" value="Gibt es Zahleninformation" style="rhombus;whiteSpace=wrap;html=1;" parent="1" vertex="1">
          <mxGeometry x="990" y="710" width="80" height="80" as="geometry" />
        </mxCell>
        <mxCell id="FX36uq53OrztX1MvJwH2-15" value="eval_first = NR" style="ellipse;whiteSpace=wrap;html=1;" parent="1" vertex="1">
          <mxGeometry x="1380" y="275" width="60" height="60" as="geometry" />
        </mxCell>
        <mxCell id="FX36uq53OrztX1MvJwH2-17" value="&lt;font style=&quot;font-size: 18px;&quot;&gt;NO&lt;/font&gt;" style="edgeStyle=orthogonalEdgeStyle;rounded=0;orthogonalLoop=1;jettySize=auto;html=1;exitX=0.5;exitY=1;exitDx=0;exitDy=0;entryX=0.5;entryY=0;entryDx=0;entryDy=0;" parent="1" source="FX36uq53OrztX1MvJwH2-19" target="FX36uq53OrztX1MvJwH2-10" edge="1">
          <mxGeometry relative="1" as="geometry" />
        </mxCell>
        <mxCell id="FX36uq53OrztX1MvJwH2-18" value="&lt;font style=&quot;font-size: 18px;&quot;&gt;YES&lt;/font&gt;" style="edgeStyle=orthogonalEdgeStyle;rounded=0;orthogonalLoop=1;jettySize=auto;html=1;exitX=0;exitY=0.5;exitDx=0;exitDy=0;entryX=1;entryY=0.5;entryDx=0;entryDy=0;" parent="1" source="FX36uq53OrztX1MvJwH2-19" target="FX36uq53OrztX1MvJwH2-20" edge="1">
          <mxGeometry relative="1" as="geometry">
            <mxPoint as="offset" />
          </mxGeometry>
        </mxCell>
        <mxCell id="FX36uq53OrztX1MvJwH2-19" value="unrelated cases?" style="rhombus;whiteSpace=wrap;html=1;" parent="1" vertex="1">
          <mxGeometry x="990" y="510" width="80" height="80" as="geometry" />
        </mxCell>
        <mxCell id="FX36uq53OrztX1MvJwH2-20" value="STOPP: anderen Textausschnitt wÃ¤hlen" style="rounded=1;whiteSpace=wrap;html=1;fillColor=#dae8fc;strokeColor=#6c8ebf;" parent="1" vertex="1">
          <mxGeometry x="780" y="520" width="130" height="60" as="geometry" />
        </mxCell>
        <mxCell id="FX36uq53OrztX1MvJwH2-21" value="NO RISK COMMUNICATION" style="shape=process;whiteSpace=wrap;html=1;backgroundOutline=1;fillColor=#e1d5e7;strokeColor=#9673a6;" parent="1" vertex="1">
          <mxGeometry x="1450" y="272.5" width="160" height="70" as="geometry" />
        </mxCell>
        <mxCell id="FX36uq53OrztX1MvJwH2-23" value="UNRELATED RISKS" style="shape=process;whiteSpace=wrap;html=1;backgroundOutline=1;fillColor=#e1d5e7;strokeColor=#9673a6;" parent="1" vertex="1">
          <mxGeometry x="530" y="515" width="160" height="70" as="geometry" />
        </mxCell>
        <mxCell id="FX36uq53OrztX1MvJwH2-25" value="eval_first = UR" style="ellipse;whiteSpace=wrap;html=1;" parent="1" vertex="1">
          <mxGeometry x="700" y="520" width="60" height="60" as="geometry" />
        </mxCell>
        <mxCell id="FX36uq53OrztX1MvJwH2-31" value="RISK COMMUNICATION" style="shape=process;whiteSpace=wrap;html=1;backgroundOutline=1;fillColor=#e1d5e7;strokeColor=#9673a6;" parent="1" vertex="1">
          <mxGeometry x="1072.5" y="380" width="160" height="70" as="geometry" />
        </mxCell>
        <mxCell id="FX36uq53OrztX1MvJwH2-32" value="END" style="shape=tape;whiteSpace=wrap;html=1;size=0.3333333333333333;fillColor=#1ba1e2;fontColor=#ffffff;strokeColor=#006EAF;" parent="1" vertex="1">
          <mxGeometry x="1620" y="275" width="60" height="60" as="geometry" />
        </mxCell>
        <mxCell id="FX36uq53OrztX1MvJwH2-33" value="END" style="shape=tape;whiteSpace=wrap;html=1;size=0.3333333333333333;fillColor=#1ba1e2;fontColor=#ffffff;strokeColor=#006EAF;" parent="1" vertex="1">
          <mxGeometry x="460" y="520" width="60" height="60" as="geometry" />
        </mxCell>
        <mxCell id="FX36uq53OrztX1MvJwH2-39" value="ja" style="edgeStyle=orthogonalEdgeStyle;rounded=0;orthogonalLoop=1;jettySize=auto;html=1;exitX=1;exitY=0.5;exitDx=0;exitDy=0;" parent="1" source="FX36uq53OrztX1MvJwH2-10" edge="1">
          <mxGeometry relative="1" as="geometry">
            <mxPoint x="1150" y="920" as="targetPoint" />
            <mxPoint x="1260" y="780" as="sourcePoint" />
            <Array as="points">
              <mxPoint x="1150" y="750" />
              <mxPoint x="1150" y="900" />
            </Array>
          </mxGeometry>
        </mxCell>
        <mxCell id="FX36uq53OrztX1MvJwH2-40" value="&lt;font style=&quot;font-size: 18px;&quot;&gt;NO&lt;/font&gt;" style="edgeLabel;html=1;align=center;verticalAlign=middle;resizable=0;points=[];" parent="FX36uq53OrztX1MvJwH2-39" vertex="1" connectable="0">
          <mxGeometry x="0.0154" y="6" relative="1" as="geometry">
            <mxPoint as="offset" />
          </mxGeometry>
        </mxCell>
        <mxCell id="FX36uq53OrztX1MvJwH2-41" value="NO QUANTITATIVE RISK COMMUNICATION" style="shape=process;whiteSpace=wrap;html=1;backgroundOutline=1;fillColor=#e1d5e7;strokeColor=#9673a6;" parent="1" vertex="1">
          <mxGeometry x="1070" y="920" width="165" height="70" as="geometry" />
        </mxCell>
        <mxCell id="FX36uq53OrztX1MvJwH2-42" value="QUANTITATIVE RISK COMMUNICATION" style="shape=process;whiteSpace=wrap;html=1;backgroundOutline=1;fillColor=#e1d5e7;strokeColor=#9673a6;" parent="1" vertex="1">
          <mxGeometry x="830" y="920" width="165" height="70" as="geometry" />
        </mxCell>
        <mxCell id="FX36uq53OrztX1MvJwH2-44" style="edgeStyle=orthogonalEdgeStyle;rounded=0;orthogonalLoop=1;jettySize=auto;html=1;exitX=0;exitY=0.5;exitDx=0;exitDy=0;entryX=0.5;entryY=0;entryDx=0;entryDy=0;" parent="1" source="FX36uq53OrztX1MvJwH2-50" target="FX36uq53OrztX1MvJwH2-51" edge="1">
          <mxGeometry relative="1" as="geometry">
            <mxPoint x="520" y="1470" as="targetPoint" />
          </mxGeometry>
        </mxCell>
        <mxCell id="FX36uq53OrztX1MvJwH2-54" value="&lt;font style=&quot;font-size: 18px;&quot;&gt;NO&lt;/font&gt;" style="edgeLabel;html=1;align=center;verticalAlign=middle;resizable=0;points=[];" parent="FX36uq53OrztX1MvJwH2-44" vertex="1" connectable="0">
          <mxGeometry x="-0.3593" relative="1" as="geometry">
            <mxPoint as="offset" />
          </mxGeometry>
        </mxCell>
        <mxCell id="FX36uq53OrztX1MvJwH2-45" style="edgeStyle=orthogonalEdgeStyle;rounded=0;orthogonalLoop=1;jettySize=auto;html=1;exitX=0.5;exitY=1;exitDx=0;exitDy=0;" parent="1" source="FX36uq53OrztX1MvJwH2-50" edge="1">
          <mxGeometry relative="1" as="geometry">
            <mxPoint x="1030" y="1480" as="targetPoint" />
          </mxGeometry>
        </mxCell>
        <mxCell id="FX36uq53OrztX1MvJwH2-43" value="Was wird diskutiert?" style="rhombus;whiteSpace=wrap;html=1;" parent="1" vertex="1">
          <mxGeometry x="990" y="1190" width="80" height="80" as="geometry" />
        </mxCell>
        <mxCell id="FX36uq53OrztX1MvJwH2-47" value="&lt;font style=&quot;font-size: 14px;&quot;&gt;&lt;b&gt;CONTINUE&lt;/b&gt;&lt;/font&gt;" style="shape=tape;whiteSpace=wrap;html=1;size=0.3333333333333333;fillColor=#60a917;fontColor=#ffffff;strokeColor=#2D7600;" parent="1" vertex="1">
          <mxGeometry x="1060" y="610" width="100" height="60" as="geometry" />
        </mxCell>
        <mxCell id="FX36uq53OrztX1MvJwH2-51" value="TWO RISK SCENARIOS:&amp;nbsp;&lt;div&gt;BASE AND NEW&lt;/div&gt;" style="shape=process;whiteSpace=wrap;html=1;backgroundOutline=1;fillColor=#e1d5e7;strokeColor=#9673a6;" parent="1" vertex="1">
          <mxGeometry x="730" y="1550" width="165" height="70" as="geometry" />
        </mxCell>
        <mxCell id="FX36uq53OrztX1MvJwH2-52" value="eval_first = NN" style="ellipse;whiteSpace=wrap;html=1;shadow=0;" parent="1" vertex="1">
          <mxGeometry x="1122.5" y="1000" width="60" height="60" as="geometry" />
        </mxCell>
        <mxCell id="FX36uq53OrztX1MvJwH2-53" value="" style="edgeStyle=orthogonalEdgeStyle;rounded=0;orthogonalLoop=1;jettySize=auto;html=1;exitX=0.5;exitY=1;exitDx=0;exitDy=0;" parent="1" source="FX36uq53OrztX1MvJwH2-43" target="FX36uq53OrztX1MvJwH2-50" edge="1">
          <mxGeometry relative="1" as="geometry">
            <mxPoint x="1030" y="1480" as="targetPoint" />
            <mxPoint x="1030" y="1270" as="sourcePoint" />
          </mxGeometry>
        </mxCell>
        <mxCell id="FX36uq53OrztX1MvJwH2-57" style="edgeStyle=orthogonalEdgeStyle;rounded=0;orthogonalLoop=1;jettySize=auto;html=1;exitX=1;exitY=0.5;exitDx=0;exitDy=0;entryX=0.5;entryY=0;entryDx=0;entryDy=0;" parent="1" source="FX36uq53OrztX1MvJwH2-50" target="FX36uq53OrztX1MvJwH2-63" edge="1">
          <mxGeometry relative="1" as="geometry">
            <mxPoint x="1375" y="1560" as="targetPoint" />
          </mxGeometry>
        </mxCell>
        <mxCell id="mqBiNrfAOlZdhpRRbt28-5" value="&lt;font style=&quot;font-size: 18px;&quot;&gt;YES&lt;/font&gt;" style="edgeLabel;html=1;align=center;verticalAlign=middle;resizable=0;points=[];" vertex="1" connectable="0" parent="FX36uq53OrztX1MvJwH2-57">
          <mxGeometry x="-0.4338" y="2" relative="1" as="geometry">
            <mxPoint as="offset" />
          </mxGeometry>
        </mxCell>
        <mxCell id="FX36uq53OrztX1MvJwH2-50" value="&lt;b&gt;Folgende Werte sind null:&lt;/b&gt;&lt;br&gt;&lt;div&gt;absolute_risk_new,&amp;nbsp;&lt;/div&gt;&lt;div&gt;absolute_number_new,&lt;/div&gt;&lt;div&gt;verbal_descriptor_new,&lt;/div&gt;&lt;div&gt;relative_risk,&amp;nbsp;&lt;/div&gt;&lt;div&gt;absolute_risk_difference,&amp;nbsp;&lt;/div&gt;&lt;div&gt;absolute_number_difference,&amp;nbsp;&lt;/div&gt;&lt;div&gt;verbal_descriptor_change&amp;nbsp;&lt;/div&gt;" style="whiteSpace=wrap;html=1;" parent="1" vertex="1">
          <mxGeometry x="945" y="1370" width="170" height="140" as="geometry" />
        </mxCell>
        <mxCell id="FX36uq53OrztX1MvJwH2-63" value="ONE RISK SCENARIO:&lt;div&gt;BASE&lt;/div&gt;" style="shape=process;whiteSpace=wrap;html=1;backgroundOutline=1;fillColor=#e1d5e7;strokeColor=#9673a6;" parent="1" vertex="1">
          <mxGeometry x="1158" y="1550" width="165" height="70" as="geometry" />
        </mxCell>
        <mxCell id="FX36uq53OrztX1MvJwH2-67" style="edgeStyle=orthogonalEdgeStyle;rounded=0;orthogonalLoop=1;jettySize=auto;html=1;entryX=0.5;entryY=0;entryDx=0;entryDy=0;" parent="1" target="FX36uq53OrztX1MvJwH2-66" edge="1">
          <mxGeometry relative="1" as="geometry">
            <mxPoint x="1024" y="1980" as="sourcePoint" />
          </mxGeometry>
        </mxCell>
        <mxCell id="FX36uq53OrztX1MvJwH2-75" style="edgeStyle=orthogonalEdgeStyle;rounded=0;orthogonalLoop=1;jettySize=auto;html=1;exitX=0.5;exitY=1;exitDx=0;exitDy=0;entryX=0.5;entryY=0;entryDx=0;entryDy=0;" parent="1" source="FX36uq53OrztX1MvJwH2-66" target="FX36uq53OrztX1MvJwH2-73" edge="1">
          <mxGeometry relative="1" as="geometry" />
        </mxCell>
        <mxCell id="FX36uq53OrztX1MvJwH2-66" value="Berechnungslogik" style="shape=trapezoid;perimeter=trapezoidPerimeter;whiteSpace=wrap;html=1;fixedSize=1;" parent="1" vertex="1">
          <mxGeometry x="964.38" y="2040" width="120" height="60" as="geometry" />
        </mxCell>
        <mxCell id="FX36uq53OrztX1MvJwH2-69" value="eval_2 = S2" style="ellipse;whiteSpace=wrap;html=1;" parent="1" vertex="1">
          <mxGeometry x="772.5" y="1634" width="80" height="80" as="geometry" />
        </mxCell>
        <mxCell id="FX36uq53OrztX1MvJwH2-70" value="eval_first = NG" style="ellipse;whiteSpace=wrap;html=1;shadow=0;" parent="1" vertex="1">
          <mxGeometry x="882.5" y="1000" width="60" height="60" as="geometry" />
        </mxCell>
        <mxCell id="FX36uq53OrztX1MvJwH2-71" value="eval_2 = SB" style="ellipse;whiteSpace=wrap;html=1;" parent="1" vertex="1">
          <mxGeometry x="1201" y="1634" width="80" height="80" as="geometry" />
        </mxCell>
        <mxCell id="FX36uq53OrztX1MvJwH2-79" style="edgeStyle=orthogonalEdgeStyle;rounded=0;orthogonalLoop=1;jettySize=auto;html=1;exitX=0;exitY=0.5;exitDx=0;exitDy=0;" parent="1" source="FX36uq53OrztX1MvJwH2-73" edge="1">
          <mxGeometry relative="1" as="geometry">
            <mxPoint x="909.38" y="2309.9999999999995" as="targetPoint" />
          </mxGeometry>
        </mxCell>
        <mxCell id="FX36uq53OrztX1MvJwH2-81" value="&lt;b&gt;gegeben&lt;/b&gt;" style="edgeLabel;html=1;align=center;verticalAlign=middle;resizable=0;points=[];" parent="FX36uq53OrztX1MvJwH2-79" vertex="1" connectable="0">
          <mxGeometry x="-0.3658" y="2" relative="1" as="geometry">
            <mxPoint as="offset" />
          </mxGeometry>
        </mxCell>
        <mxCell id="FX36uq53OrztX1MvJwH2-84" style="edgeStyle=orthogonalEdgeStyle;rounded=0;orthogonalLoop=1;jettySize=auto;html=1;exitX=0.5;exitY=1;exitDx=0;exitDy=0;" parent="1" source="FX36uq53OrztX1MvJwH2-73" edge="1">
          <mxGeometry relative="1" as="geometry">
            <mxPoint x="1024.046666666667" y="2309.9999999999995" as="targetPoint" />
          </mxGeometry>
        </mxCell>
        <mxCell id="FX36uq53OrztX1MvJwH2-85" value="&lt;b&gt;nur berechenbar&lt;/b&gt;" style="edgeLabel;html=1;align=center;verticalAlign=middle;resizable=0;points=[];" parent="FX36uq53OrztX1MvJwH2-84" vertex="1" connectable="0">
          <mxGeometry x="-0.4349" relative="1" as="geometry">
            <mxPoint as="offset" />
          </mxGeometry>
        </mxCell>
        <mxCell id="FX36uq53OrztX1MvJwH2-73" value="AR base" style="rhombus;whiteSpace=wrap;html=1;" parent="1" vertex="1">
          <mxGeometry x="984.38" y="2170" width="80" height="80" as="geometry" />
        </mxCell>
        <mxCell id="FX36uq53OrztX1MvJwH2-80" style="edgeStyle=orthogonalEdgeStyle;rounded=0;orthogonalLoop=1;jettySize=auto;html=1;exitX=1;exitY=0.5;exitDx=0;exitDy=0;" parent="1" source="FX36uq53OrztX1MvJwH2-73" edge="1">
          <mxGeometry relative="1" as="geometry">
            <mxPoint x="1129.38" y="2310" as="targetPoint" />
            <mxPoint x="1254.38" y="2250" as="sourcePoint" />
          </mxGeometry>
        </mxCell>
        <mxCell id="FX36uq53OrztX1MvJwH2-83" value="&lt;b&gt;nicht berechenbar&lt;/b&gt;" style="edgeLabel;html=1;align=center;verticalAlign=middle;resizable=0;points=[];" parent="FX36uq53OrztX1MvJwH2-80" vertex="1" connectable="0">
          <mxGeometry x="-0.1439" y="-2" relative="1" as="geometry">
            <mxPoint y="-1" as="offset" />
          </mxGeometry>
        </mxCell>
        <mxCell id="FX36uq53OrztX1MvJwH2-89" style="edgeStyle=orthogonalEdgeStyle;rounded=0;orthogonalLoop=1;jettySize=auto;html=1;exitX=0.5;exitY=1;exitDx=0;exitDy=0;entryX=0.5;entryY=0;entryDx=0;entryDy=0;" parent="1" source="FX36uq53OrztX1MvJwH2-86" target="FX36uq53OrztX1MvJwH2-101" edge="1">
          <mxGeometry relative="1" as="geometry">
            <mxPoint x="1019.38" y="2459.9999999999995" as="targetPoint" />
          </mxGeometry>
        </mxCell>
        <mxCell id="FX36uq53OrztX1MvJwH2-86" value="eval_3_abs_base =&lt;div&gt;G&lt;/div&gt;" style="ellipse;whiteSpace=wrap;html=1;" parent="1" vertex="1">
          <mxGeometry x="869.38" y="2310" width="80" height="80" as="geometry" />
        </mxCell>
        <mxCell id="FX36uq53OrztX1MvJwH2-90" style="edgeStyle=orthogonalEdgeStyle;rounded=0;orthogonalLoop=1;jettySize=auto;html=1;exitX=0.5;exitY=1;exitDx=0;exitDy=0;entryX=0.5;entryY=0;entryDx=0;entryDy=0;" parent="1" source="FX36uq53OrztX1MvJwH2-87" target="FX36uq53OrztX1MvJwH2-101" edge="1">
          <mxGeometry relative="1" as="geometry">
            <mxPoint x="1024.046666666667" y="2459.9999999999995" as="targetPoint" />
          </mxGeometry>
        </mxCell>
        <mxCell id="FX36uq53OrztX1MvJwH2-87" value="eval_3_abs_base =&lt;div&gt;C&lt;/div&gt;" style="ellipse;whiteSpace=wrap;html=1;" parent="1" vertex="1">
          <mxGeometry x="984.38" y="2310" width="80" height="80" as="geometry" />
        </mxCell>
        <mxCell id="FX36uq53OrztX1MvJwH2-102" style="edgeStyle=orthogonalEdgeStyle;rounded=0;orthogonalLoop=1;jettySize=auto;html=1;exitX=0.5;exitY=1;exitDx=0;exitDy=0;entryX=0.5;entryY=0;entryDx=0;entryDy=0;" parent="1" source="FX36uq53OrztX1MvJwH2-88" target="FX36uq53OrztX1MvJwH2-101" edge="1">
          <mxGeometry relative="1" as="geometry" />
        </mxCell>
        <mxCell id="FX36uq53OrztX1MvJwH2-88" value="eval_3_abs_base =&lt;div&gt;N&lt;/div&gt;" style="ellipse;whiteSpace=wrap;html=1;" parent="1" vertex="1">
          <mxGeometry x="1091.88" y="2310" width="80" height="80" as="geometry" />
        </mxCell>
        <mxCell id="FX36uq53OrztX1MvJwH2-91" style="edgeStyle=orthogonalEdgeStyle;rounded=0;orthogonalLoop=1;jettySize=auto;html=1;exitX=0;exitY=0.5;exitDx=0;exitDy=0;" parent="1" edge="1">
          <mxGeometry relative="1" as="geometry">
            <mxPoint x="909.38" y="2589.9999999999995" as="targetPoint" />
            <mxPoint x="984.38" y="2490" as="sourcePoint" />
          </mxGeometry>
        </mxCell>
        <mxCell id="FX36uq53OrztX1MvJwH2-92" value="&lt;b&gt;gegeben&lt;/b&gt;" style="edgeLabel;html=1;align=center;verticalAlign=middle;resizable=0;points=[];" parent="FX36uq53OrztX1MvJwH2-91" vertex="1" connectable="0">
          <mxGeometry x="-0.3658" y="2" relative="1" as="geometry">
            <mxPoint as="offset" />
          </mxGeometry>
        </mxCell>
        <mxCell id="FX36uq53OrztX1MvJwH2-93" style="edgeStyle=orthogonalEdgeStyle;rounded=0;orthogonalLoop=1;jettySize=auto;html=1;exitX=0.5;exitY=1;exitDx=0;exitDy=0;" parent="1" edge="1">
          <mxGeometry relative="1" as="geometry">
            <mxPoint x="1024.046666666667" y="2589.9999999999995" as="targetPoint" />
            <mxPoint x="1024.38" y="2530" as="sourcePoint" />
          </mxGeometry>
        </mxCell>
        <mxCell id="FX36uq53OrztX1MvJwH2-94" value="&lt;b&gt;nur berechenbar&lt;/b&gt;" style="edgeLabel;html=1;align=center;verticalAlign=middle;resizable=0;points=[];" parent="FX36uq53OrztX1MvJwH2-93" vertex="1" connectable="0">
          <mxGeometry x="-0.4349" relative="1" as="geometry">
            <mxPoint as="offset" />
          </mxGeometry>
        </mxCell>
        <mxCell id="FX36uq53OrztX1MvJwH2-95" style="edgeStyle=orthogonalEdgeStyle;rounded=0;orthogonalLoop=1;jettySize=auto;html=1;exitX=1;exitY=0.5;exitDx=0;exitDy=0;" parent="1" edge="1">
          <mxGeometry relative="1" as="geometry">
            <mxPoint x="1129.38" y="2590" as="targetPoint" />
            <mxPoint x="1064.38" y="2490" as="sourcePoint" />
          </mxGeometry>
        </mxCell>
        <mxCell id="FX36uq53OrztX1MvJwH2-96" value="&lt;b&gt;nicht berechenbar&lt;/b&gt;" style="edgeLabel;html=1;align=center;verticalAlign=middle;resizable=0;points=[];" parent="FX36uq53OrztX1MvJwH2-95" vertex="1" connectable="0">
          <mxGeometry x="-0.1439" y="-2" relative="1" as="geometry">
            <mxPoint y="-1" as="offset" />
          </mxGeometry>
        </mxCell>
        <mxCell id="FX36uq53OrztX1MvJwH2-97" style="edgeStyle=orthogonalEdgeStyle;rounded=0;orthogonalLoop=1;jettySize=auto;html=1;exitX=0.5;exitY=1;exitDx=0;exitDy=0;entryX=0.5;entryY=0;entryDx=0;entryDy=0;" parent="1" source="FX36uq53OrztX1MvJwH2-98" target="FX36uq53OrztX1MvJwH2-104" edge="1">
          <mxGeometry relative="1" as="geometry">
            <mxPoint x="1019.38" y="2739.9999999999995" as="targetPoint" />
          </mxGeometry>
        </mxCell>
        <mxCell id="FX36uq53OrztX1MvJwH2-98" value="eval_3_abs_new =&lt;div&gt;G&lt;/div&gt;" style="ellipse;whiteSpace=wrap;html=1;" parent="1" vertex="1">
          <mxGeometry x="869.38" y="2590" width="80" height="80" as="geometry" />
        </mxCell>
        <mxCell id="FX36uq53OrztX1MvJwH2-99" style="edgeStyle=orthogonalEdgeStyle;rounded=0;orthogonalLoop=1;jettySize=auto;html=1;exitX=0.5;exitY=1;exitDx=0;exitDy=0;" parent="1" source="FX36uq53OrztX1MvJwH2-100" edge="1">
          <mxGeometry relative="1" as="geometry">
            <mxPoint x="1024.046666666667" y="2739.9999999999995" as="targetPoint" />
          </mxGeometry>
        </mxCell>
        <mxCell id="FX36uq53OrztX1MvJwH2-100" value="eval_3_abs_new =&lt;div&gt;C&lt;/div&gt;" style="ellipse;whiteSpace=wrap;html=1;" parent="1" vertex="1">
          <mxGeometry x="984.38" y="2590" width="80" height="80" as="geometry" />
        </mxCell>
        <mxCell id="FX36uq53OrztX1MvJwH2-101" value="AR new" style="rhombus;whiteSpace=wrap;html=1;" parent="1" vertex="1">
          <mxGeometry x="984.38" y="2450" width="80" height="80" as="geometry" />
        </mxCell>
        <mxCell id="FX36uq53OrztX1MvJwH2-114" style="edgeStyle=orthogonalEdgeStyle;rounded=0;orthogonalLoop=1;jettySize=auto;html=1;exitX=0.5;exitY=1;exitDx=0;exitDy=0;entryX=0.5;entryY=0;entryDx=0;entryDy=0;" parent="1" source="FX36uq53OrztX1MvJwH2-103" target="FX36uq53OrztX1MvJwH2-104" edge="1">
          <mxGeometry relative="1" as="geometry" />
        </mxCell>
        <mxCell id="FX36uq53OrztX1MvJwH2-103" value="eval_3_abs_new =&lt;div&gt;N&lt;/div&gt;" style="ellipse;whiteSpace=wrap;html=1;" parent="1" vertex="1">
          <mxGeometry x="1091.88" y="2590" width="80" height="80" as="geometry" />
        </mxCell>
        <mxCell id="FX36uq53OrztX1MvJwH2-104" value="RR" style="rhombus;whiteSpace=wrap;html=1;" parent="1" vertex="1">
          <mxGeometry x="984.38" y="2740" width="80" height="80" as="geometry" />
        </mxCell>
        <mxCell id="FX36uq53OrztX1MvJwH2-105" style="edgeStyle=orthogonalEdgeStyle;rounded=0;orthogonalLoop=1;jettySize=auto;html=1;exitX=0;exitY=0.5;exitDx=0;exitDy=0;" parent="1" edge="1">
          <mxGeometry relative="1" as="geometry">
            <mxPoint x="909.38" y="2879.9999999999995" as="targetPoint" />
            <mxPoint x="984.38" y="2780" as="sourcePoint" />
          </mxGeometry>
        </mxCell>
        <mxCell id="FX36uq53OrztX1MvJwH2-106" value="&lt;b&gt;gegeben&lt;/b&gt;" style="edgeLabel;html=1;align=center;verticalAlign=middle;resizable=0;points=[];" parent="FX36uq53OrztX1MvJwH2-105" vertex="1" connectable="0">
          <mxGeometry x="-0.3658" y="2" relative="1" as="geometry">
            <mxPoint as="offset" />
          </mxGeometry>
        </mxCell>
        <mxCell id="FX36uq53OrztX1MvJwH2-107" style="edgeStyle=orthogonalEdgeStyle;rounded=0;orthogonalLoop=1;jettySize=auto;html=1;exitX=0.5;exitY=1;exitDx=0;exitDy=0;" parent="1" edge="1">
          <mxGeometry relative="1" as="geometry">
            <mxPoint x="1024.046666666667" y="2879.9999999999995" as="targetPoint" />
            <mxPoint x="1024.38" y="2820" as="sourcePoint" />
          </mxGeometry>
        </mxCell>
        <mxCell id="FX36uq53OrztX1MvJwH2-108" value="&lt;b&gt;nur berechenbar&lt;/b&gt;" style="edgeLabel;html=1;align=center;verticalAlign=middle;resizable=0;points=[];" parent="FX36uq53OrztX1MvJwH2-107" vertex="1" connectable="0">
          <mxGeometry x="-0.4349" relative="1" as="geometry">
            <mxPoint as="offset" />
          </mxGeometry>
        </mxCell>
        <mxCell id="FX36uq53OrztX1MvJwH2-109" style="edgeStyle=orthogonalEdgeStyle;rounded=0;orthogonalLoop=1;jettySize=auto;html=1;exitX=1;exitY=0.5;exitDx=0;exitDy=0;" parent="1" edge="1">
          <mxGeometry relative="1" as="geometry">
            <mxPoint x="1129.38" y="2880" as="targetPoint" />
            <mxPoint x="1064.38" y="2780" as="sourcePoint" />
          </mxGeometry>
        </mxCell>
        <mxCell id="FX36uq53OrztX1MvJwH2-110" value="&lt;b&gt;nicht berechenbar&lt;/b&gt;" style="edgeLabel;html=1;align=center;verticalAlign=middle;resizable=0;points=[];" parent="FX36uq53OrztX1MvJwH2-109" vertex="1" connectable="0">
          <mxGeometry x="-0.1439" y="-2" relative="1" as="geometry">
            <mxPoint y="-1" as="offset" />
          </mxGeometry>
        </mxCell>
        <mxCell id="FX36uq53OrztX1MvJwH2-111" value="eval_3_relative =&lt;div&gt;G&lt;/div&gt;" style="ellipse;whiteSpace=wrap;html=1;" parent="1" vertex="1">
          <mxGeometry x="869.38" y="2880" width="80" height="80" as="geometry" />
        </mxCell>
        <mxCell id="FX36uq53OrztX1MvJwH2-112" value="eval_3_relative =&lt;div&gt;C&lt;/div&gt;" style="ellipse;whiteSpace=wrap;html=1;" parent="1" vertex="1">
          <mxGeometry x="984.38" y="2880" width="80" height="80" as="geometry" />
        </mxCell>
        <mxCell id="FX36uq53OrztX1MvJwH2-113" value="eval_3_relative =&lt;div&gt;N&lt;/div&gt;" style="ellipse;whiteSpace=wrap;html=1;" parent="1" vertex="1">
          <mxGeometry x="1091.88" y="2880" width="80" height="80" as="geometry" />
        </mxCell>
        <mxCell id="mqBiNrfAOlZdhpRRbt28-1" value="&lt;font style=&quot;font-size: 14px;&quot;&gt;&lt;b&gt;CONTINUE&lt;/b&gt;&lt;/font&gt;" style="shape=tape;whiteSpace=wrap;html=1;size=0.3333333333333333;fillColor=#60a917;fontColor=#ffffff;strokeColor=#2D7600;" vertex="1" parent="1">
          <mxGeometry x="980" y="1120" width="100" height="60" as="geometry" />
        </mxCell>
        <mxCell id="mqBiNrfAOlZdhpRRbt28-7" value="AR base&amp;nbsp;&lt;div&gt;=&lt;/div&gt;&lt;div&gt;Absolute risk base&lt;/div&gt;" style="ellipse;shape=cloud;whiteSpace=wrap;html=1;" vertex="1" parent="1">
          <mxGeometry x="1240.63" y="2170" width="150" height="80" as="geometry" />
        </mxCell>
        <mxCell id="mqBiNrfAOlZdhpRRbt28-8" value="AR new&amp;nbsp;&lt;div&gt;=&lt;/div&gt;&lt;div&gt;Absolute risk new&lt;/div&gt;" style="ellipse;shape=cloud;whiteSpace=wrap;html=1;" vertex="1" parent="1">
          <mxGeometry x="1240.63" y="2450" width="150" height="80" as="geometry" />
        </mxCell>
        <mxCell id="mqBiNrfAOlZdhpRRbt28-9" value="&lt;div&gt;RR&lt;/div&gt;&lt;div&gt;=&lt;/div&gt;relative risk" style="ellipse;shape=cloud;whiteSpace=wrap;html=1;" vertex="1" parent="1">
          <mxGeometry x="1240.63" y="2720" width="150" height="80" as="geometry" />
        </mxCell>
        <mxCell id="mqBiNrfAOlZdhpRRbt28-10" value="&lt;font style=&quot;font-size: 14px;&quot;&gt;&lt;b&gt;CONTINUE&lt;/b&gt;&lt;/font&gt;" style="shape=tape;whiteSpace=wrap;html=1;size=0.3333333333333333;fillColor=#60a917;fontColor=#ffffff;strokeColor=#2D7600;" vertex="1" parent="1">
          <mxGeometry x="762.5" y="1730" width="100" height="60" as="geometry" />
        </mxCell>
        <mxCell id="mqBiNrfAOlZdhpRRbt28-11" value="&lt;font style=&quot;font-size: 14px;&quot;&gt;&lt;b&gt;CONTINUE&lt;/b&gt;&lt;/font&gt;" style="shape=tape;whiteSpace=wrap;html=1;size=0.3333333333333333;fillColor=#60a917;fontColor=#ffffff;strokeColor=#2D7600;" vertex="1" parent="1">
          <mxGeometry x="1191" y="1724" width="100" height="60" as="geometry" />
        </mxCell>
        <mxCell id="mqBiNrfAOlZdhpRRbt28-12" value="&lt;font style=&quot;font-size: 14px;&quot;&gt;&lt;b&gt;CONTINUE&lt;/b&gt;&lt;/font&gt;" style="shape=tape;whiteSpace=wrap;html=1;size=0.3333333333333333;fillColor=#60a917;fontColor=#ffffff;strokeColor=#2D7600;" vertex="1" parent="1">
          <mxGeometry x="970" y="1930" width="100" height="60" as="geometry" />
        </mxCell>
      </root>
    </mxGraphModel>
  </diagram>
</mxfile>
